<mxfile host="Electron" agent="Mozilla/5.0 (Windows NT 10.0; Win64; x64) AppleWebKit/537.36 (KHTML, like Gecko) draw.io/26.0.4 Chrome/128.0.6613.186 Electron/32.2.5 Safari/537.36" version="26.0.4">
  <diagram name="Страница — 1" id="LZ_sfDJLqFtVKweXNo8R">
    <mxGraphModel dx="1151" dy="673" grid="1" gridSize="10" guides="1" tooltips="1" connect="1" arrows="1" fold="1" page="1" pageScale="1" pageWidth="827" pageHeight="1169" math="0" shadow="0">
      <root>
        <mxCell id="0" />
        <mxCell id="1" parent="0" />
        <mxCell id="H2iQhzr1gyO-hP3FqjxY-2" value="" style="shape=cylinder3;whiteSpace=wrap;html=1;boundedLbl=1;backgroundOutline=1;size=15;fillColor=#fff2cc;strokeColor=#d6b656;" vertex="1" parent="1">
          <mxGeometry x="30" y="170" width="140" height="240" as="geometry" />
        </mxCell>
        <mxCell id="H2iQhzr1gyO-hP3FqjxY-5" value="" style="dashed=0;outlineConnect=0;html=1;align=center;labelPosition=center;verticalLabelPosition=bottom;verticalAlign=top;shape=mxgraph.weblogos.reddit;fillColor=#F3F8FC;gradientColor=#B4D2F0" vertex="1" parent="1">
          <mxGeometry x="70" y="230" width="66.09" height="50" as="geometry" />
        </mxCell>
        <mxCell id="H2iQhzr1gyO-hP3FqjxY-6" value="DATA SOURCES" style="text;html=1;align=center;verticalAlign=middle;whiteSpace=wrap;rounded=0;" vertex="1" parent="1">
          <mxGeometry x="53.05" y="130" width="100" height="30" as="geometry" />
        </mxCell>
        <mxCell id="H2iQhzr1gyO-hP3FqjxY-7" value="DATA STORAGES" style="text;html=1;align=center;verticalAlign=middle;whiteSpace=wrap;rounded=0;" vertex="1" parent="1">
          <mxGeometry x="322.49" y="130" width="105" height="30" as="geometry" />
        </mxCell>
        <mxCell id="H2iQhzr1gyO-hP3FqjxY-9" value="" style="shape=cylinder3;whiteSpace=wrap;html=1;boundedLbl=1;backgroundOutline=1;size=15;fillColor=#f8cecc;strokeColor=#b85450;" vertex="1" parent="1">
          <mxGeometry x="570" y="170" width="140" height="240" as="geometry" />
        </mxCell>
        <mxCell id="H2iQhzr1gyO-hP3FqjxY-10" value="" style="shape=cylinder3;whiteSpace=wrap;html=1;boundedLbl=1;backgroundOutline=1;size=15;fillColor=#d5e8d4;strokeColor=#82b366;" vertex="1" parent="1">
          <mxGeometry x="300" y="170" width="150" height="240" as="geometry" />
        </mxCell>
        <mxCell id="H2iQhzr1gyO-hP3FqjxY-11" value="ANALYTICS" style="text;html=1;align=center;verticalAlign=middle;whiteSpace=wrap;rounded=0;" vertex="1" parent="1">
          <mxGeometry x="587.5" y="130" width="105" height="30" as="geometry" />
        </mxCell>
        <mxCell id="H2iQhzr1gyO-hP3FqjxY-12" value="Reddit API" style="text;html=1;align=center;verticalAlign=middle;whiteSpace=wrap;rounded=0;" vertex="1" parent="1">
          <mxGeometry x="53.05" y="284" width="100" height="30" as="geometry" />
        </mxCell>
        <mxCell id="H2iQhzr1gyO-hP3FqjxY-13" value="" style="endArrow=classic;html=1;rounded=0;exitX=1.015;exitY=0.455;exitDx=0;exitDy=0;exitPerimeter=0;" edge="1" parent="1" source="H2iQhzr1gyO-hP3FqjxY-2">
          <mxGeometry width="50" height="50" relative="1" as="geometry">
            <mxPoint x="190" y="300" as="sourcePoint" />
            <mxPoint x="300" y="279" as="targetPoint" />
          </mxGeometry>
        </mxCell>
        <mxCell id="H2iQhzr1gyO-hP3FqjxY-14" value="" style="sketch=0;points=[[0,0,0],[0.25,0,0],[0.5,0,0],[0.75,0,0],[1,0,0],[0,1,0],[0.25,1,0],[0.5,1,0],[0.75,1,0],[1,1,0],[0,0.25,0],[0,0.5,0],[0,0.75,0],[1,0.25,0],[1,0.5,0],[1,0.75,0]];outlineConnect=0;fontColor=#232F3E;fillColor=#7AA116;strokeColor=#ffffff;dashed=0;verticalLabelPosition=bottom;verticalAlign=top;align=center;html=1;fontSize=12;fontStyle=0;aspect=fixed;shape=mxgraph.aws4.resourceIcon;resIcon=mxgraph.aws4.s3;" vertex="1" parent="1">
          <mxGeometry x="346.99" y="241" width="56" height="56" as="geometry" />
        </mxCell>
        <mxCell id="H2iQhzr1gyO-hP3FqjxY-15" value="raw data to S3&amp;nbsp;" style="text;html=1;align=center;verticalAlign=middle;whiteSpace=wrap;rounded=0;fontSize=10;" vertex="1" parent="1">
          <mxGeometry x="185.63" y="254" width="105" height="30" as="geometry" />
        </mxCell>
        <mxCell id="H2iQhzr1gyO-hP3FqjxY-20" value="" style="sketch=0;points=[[0,0,0],[0.25,0,0],[0.5,0,0],[0.75,0,0],[1,0,0],[0,1,0],[0.25,1,0],[0.5,1,0],[0.75,1,0],[1,1,0],[0,0.25,0],[0,0.5,0],[0,0.75,0],[1,0.25,0],[1,0.5,0],[1,0.75,0]];outlineConnect=0;fontColor=#232F3E;fillColor=#8C4FFF;strokeColor=#ffffff;dashed=0;verticalLabelPosition=bottom;verticalAlign=top;align=center;html=1;fontSize=12;fontStyle=0;aspect=fixed;shape=mxgraph.aws4.resourceIcon;resIcon=mxgraph.aws4.glue;" vertex="1" parent="1">
          <mxGeometry x="355" y="470" width="40" height="40" as="geometry" />
        </mxCell>
        <mxCell id="H2iQhzr1gyO-hP3FqjxY-22" value="&lt;font style=&quot;font-size: 10px;&quot;&gt;&lt;span style=&quot;&quot; id=&quot;docs-internal-guid-4ce0fe70-7fff-f2a8-f13b-960c56fcd27f&quot;&gt;&lt;span style=&quot;background-color: transparent; font-variant-numeric: normal; font-variant-east-asian: normal; font-variant-alternates: normal; font-variant-position: normal; vertical-align: baseline; text-wrap: nowrap;&quot;&gt;d&lt;/span&gt;&lt;span style=&quot;white-space: pre-wrap; font-family: &amp;quot;Times New Roman&amp;quot;, serif; background-color: transparent; font-variant-numeric: normal; font-variant-east-asian: normal; font-variant-alternates: normal; font-variant-position: normal; vertical-align: baseline;&quot;&gt;ata cleaning AWS Glue (ETL job)&lt;/span&gt;&lt;span style=&quot;white-space: pre-wrap; font-family: &amp;quot;Times New Roman&amp;quot;, serif; background-color: transparent; font-weight: 700; font-variant-numeric: normal; font-variant-east-asian: normal; font-variant-alternates: normal; font-variant-position: normal; vertical-align: baseline;&quot;&gt; &lt;/span&gt;&lt;/span&gt;&lt;span style=&quot;text-wrap: nowrap;&quot;&gt;&amp;nbsp;&lt;/span&gt;&lt;/font&gt;" style="text;html=1;align=center;verticalAlign=middle;whiteSpace=wrap;rounded=0;" vertex="1" parent="1">
          <mxGeometry x="300" y="510" width="168.75" height="20" as="geometry" />
        </mxCell>
        <mxCell id="H2iQhzr1gyO-hP3FqjxY-28" value="cleaned data to S3&amp;nbsp;" style="text;html=1;align=center;verticalAlign=middle;whiteSpace=wrap;rounded=0;fontSize=10;" vertex="1" parent="1">
          <mxGeometry x="402.99" y="430" width="105" height="30" as="geometry" />
        </mxCell>
        <mxCell id="H2iQhzr1gyO-hP3FqjxY-33" value="" style="endArrow=classic;html=1;rounded=0;exitX=0.145;exitY=1;exitDx=0;exitDy=-4.35;exitPerimeter=0;entryX=0;entryY=0;entryDx=0;entryDy=0;entryPerimeter=0;" edge="1" parent="1" source="H2iQhzr1gyO-hP3FqjxY-10" target="H2iQhzr1gyO-hP3FqjxY-20">
          <mxGeometry width="50" height="50" relative="1" as="geometry">
            <mxPoint x="280" y="450" as="sourcePoint" />
            <mxPoint x="330" y="400" as="targetPoint" />
          </mxGeometry>
        </mxCell>
        <mxCell id="H2iQhzr1gyO-hP3FqjxY-34" value="" style="endArrow=classic;html=1;rounded=0;exitX=1;exitY=0;exitDx=0;exitDy=0;exitPerimeter=0;entryX=0.855;entryY=1;entryDx=0;entryDy=-4.35;entryPerimeter=0;" edge="1" parent="1" source="H2iQhzr1gyO-hP3FqjxY-20" target="H2iQhzr1gyO-hP3FqjxY-10">
          <mxGeometry width="50" height="50" relative="1" as="geometry">
            <mxPoint x="312" y="409" as="sourcePoint" />
            <mxPoint x="365" y="480" as="targetPoint" />
          </mxGeometry>
        </mxCell>
        <mxCell id="H2iQhzr1gyO-hP3FqjxY-35" value="" style="endArrow=classic;html=1;rounded=0;exitX=1.005;exitY=0.46;exitDx=0;exitDy=0;exitPerimeter=0;entryX=0.001;entryY=0.458;entryDx=0;entryDy=0;entryPerimeter=0;" edge="1" parent="1" source="H2iQhzr1gyO-hP3FqjxY-10" target="H2iQhzr1gyO-hP3FqjxY-9">
          <mxGeometry width="50" height="50" relative="1" as="geometry">
            <mxPoint x="480" y="340" as="sourcePoint" />
            <mxPoint x="530" y="290" as="targetPoint" />
          </mxGeometry>
        </mxCell>
        <mxCell id="H2iQhzr1gyO-hP3FqjxY-36" value="" style="sketch=0;points=[[0,0,0],[0.25,0,0],[0.5,0,0],[0.75,0,0],[1,0,0],[0,1,0],[0.25,1,0],[0.5,1,0],[0.75,1,0],[1,1,0],[0,0.25,0],[0,0.5,0],[0,0.75,0],[1,0.25,0],[1,0.5,0],[1,0.75,0]];outlineConnect=0;fontColor=#232F3E;fillColor=#01A88D;strokeColor=#ffffff;dashed=0;verticalLabelPosition=bottom;verticalAlign=top;align=center;html=1;fontSize=12;fontStyle=0;aspect=fixed;shape=mxgraph.aws4.resourceIcon;resIcon=mxgraph.aws4.sagemaker;" vertex="1" parent="1">
          <mxGeometry x="620" y="230" width="40" height="40" as="geometry" />
        </mxCell>
        <mxCell id="H2iQhzr1gyO-hP3FqjxY-38" value="Sentiment &amp;amp; Emotion Analysis (in SageMaker)" style="text;html=1;align=center;verticalAlign=middle;whiteSpace=wrap;rounded=0;fontSize=10;fontStyle=0" vertex="1" parent="1">
          <mxGeometry x="570" y="200" width="140" height="30" as="geometry" />
        </mxCell>
        <mxCell id="H2iQhzr1gyO-hP3FqjxY-41" value="" style="sketch=0;points=[[0,0,0],[0.25,0,0],[0.5,0,0],[0.75,0,0],[1,0,0],[0,1,0],[0.25,1,0],[0.5,1,0],[0.75,1,0],[1,1,0],[0,0.25,0],[0,0.5,0],[0,0.75,0],[1,0.25,0],[1,0.5,0],[1,0.75,0]];outlineConnect=0;fontColor=#232F3E;fillColor=#8C4FFF;strokeColor=#ffffff;dashed=0;verticalLabelPosition=bottom;verticalAlign=top;align=center;html=1;fontSize=12;fontStyle=0;aspect=fixed;shape=mxgraph.aws4.resourceIcon;resIcon=mxgraph.aws4.quicksight;" vertex="1" parent="1">
          <mxGeometry x="620" y="327" width="40" height="40" as="geometry" />
        </mxCell>
        <mxCell id="H2iQhzr1gyO-hP3FqjxY-42" value="Visualization with QuickSight" style="text;html=1;align=center;verticalAlign=middle;whiteSpace=wrap;rounded=0;fontSize=10;fontStyle=0" vertex="1" parent="1">
          <mxGeometry x="570" y="297" width="137.5" height="30" as="geometry" />
        </mxCell>
        <mxCell id="H2iQhzr1gyO-hP3FqjxY-44" value="S3&amp;nbsp;" style="text;html=1;align=center;verticalAlign=middle;whiteSpace=wrap;rounded=0;fontSize=12;" vertex="1" parent="1">
          <mxGeometry x="322.49" y="297" width="105" height="30" as="geometry" />
        </mxCell>
        <mxCell id="H2iQhzr1gyO-hP3FqjxY-49" style="edgeStyle=orthogonalEdgeStyle;rounded=0;orthogonalLoop=1;jettySize=auto;html=1;entryX=0.509;entryY=-0.055;entryDx=0;entryDy=0;entryPerimeter=0;" edge="1" parent="1" source="H2iQhzr1gyO-hP3FqjxY-36" target="H2iQhzr1gyO-hP3FqjxY-42">
          <mxGeometry relative="1" as="geometry" />
        </mxCell>
      </root>
    </mxGraphModel>
  </diagram>
</mxfile>
